<?xml version="1.0" encoding="UTF-8" standalone="no"?>
<svg
   xmlns:dc="http://purl.org/dc/elements/1.1/"
   xmlns:cc="http://creativecommons.org/ns#"
   xmlns:rdf="http://www.w3.org/1999/02/22-rdf-syntax-ns#"
   xmlns:svg="http://www.w3.org/2000/svg"
   xmlns="http://www.w3.org/2000/svg"
   xmlns:xlink="http://www.w3.org/1999/xlink"
   xmlns:sodipodi="http://sodipodi.sourceforge.net/DTD/sodipodi-0.dtd"
   xmlns:inkscape="http://www.inkscape.org/namespaces/inkscape"
   xml:space="preserve"
   id="svg1"
   viewBox="0 0 166 161"
   height="161"
   width="166"
   y="0.0000000"
   x="0.0000000"
   version="1.0"
   inkscape:version="1.0.2 (e86c870879, 2021-01-15)"
   sodipodi:docname="Logo.svg"
   inkscape:export-filename="/home/arch/Desktop/en/media/top.png"
   inkscape:export-xdpi="90"
   inkscape:export-ydpi="90"><sodipodi:namedview
     pagecolor="#ffffff"
     bordercolor="#666666"
     borderopacity="1"
     objecttolerance="10"
     gridtolerance="10"
     guidetolerance="10"
     inkscape:pageopacity="0"
     inkscape:pageshadow="2"
     inkscape:window-width="1920"
     inkscape:window-height="1016"
     id="namedview58"
     showgrid="false"
     inkscape:zoom="2.4583334"
     inkscape:cx="42.061172"
     inkscape:cy="100.38518"
     inkscape:window-x="0"
     inkscape:window-y="0"
     inkscape:window-maximized="1"
     inkscape:current-layer="g6424"
     inkscape:document-rotation="0" /><defs
     id="defs84"><linearGradient
       id="linearGradient3597"><stop
         id="stop3599"
         offset="0"
         style="stop-color:#ffffff;stop-opacity:1;" /><stop
         id="stop3601"
         offset="1"
         style="stop-color:#e6e6e6;stop-opacity:1;" /></linearGradient><radialGradient
       gradientUnits="userSpaceOnUse"
       r="347.37018"
       fy="567.99915"
       fx="232.6875"
       cy="567.99915"
       cx="232.6875"
       id="radialGradient6974"
       xlink:href="#linearGradient6968"
       gradientTransform="matrix(0.11213021,0,0,0.11213021,7.8498292,-4.9021029)" /><linearGradient
       id="linearGradient6968"><stop
         id="stop6970"
         offset="0"
         style="stop-color:#80e5ff;stop-opacity:1" /><stop
         id="stop6972"
         offset="1"
         style="stop-color:#2a7fff;stop-opacity:1" /></linearGradient><filter
       height="1.2273895"
       y="-0.11369468"
       width="1.1661427"
       x="-0.083071336"
       id="filter6964"
       style="color-interpolation-filters:sRGB"><feGaussianBlur
         id="feGaussianBlur6966"
         stdDeviation="18.430227" /></filter><filter
       height="1.0569642"
       y="-0.028482055"
       width="1.1390566"
       x="-0.069528304"
       id="filter6892"
       style="color-interpolation-filters:sRGB"><feGaussianBlur
         id="feGaussianBlur6894"
         stdDeviation="0.28910722" /></filter><filter
       height="1.059426"
       y="-0.029712997"
       width="1.1432281"
       x="-0.071614034"
       id="filter6625"
       style="color-interpolation-filters:sRGB"><feGaussianBlur
         id="feGaussianBlur6627"
         stdDeviation="4.5542252" /></filter><filter
       height="1.0675581"
       y="-0.03377901"
       width="1.1198171"
       x="-0.059908528"
       id="filter6691"
       style="color-interpolation-filters:sRGB"><feGaussianBlur
         id="feGaussianBlur6693"
         stdDeviation="5.348549" /></filter><clipPath
       clipPathUnits="userSpaceOnUse"
       id="clipPath10504"><rect
         style="fill:#2affd5;fill-opacity:1;fill-rule:evenodd;stroke:none"
         id="rect10506"
         width="183.14815"
         height="335.05765"
         x="-11974.308"
         y="-8282.9697"
         rx="0.015346251"
         ry="0.037440415" /></clipPath><clipPath
       clipPathUnits="userSpaceOnUse"
       id="clipPath5411"><rect
         style="fill:#c87137;fill-opacity:1;fill-rule:evenodd;stroke:#000000;stroke-width:4.4508;stroke-miterlimit:4;stroke-dasharray:none;stroke-opacity:1"
         id="rect5413"
         width="197.96794"
         height="1007.7336"
         x="-4245.4683"
         y="240.87817"
         rx="0.025919106"
         ry="0.3710047" /></clipPath></defs><metadata
     id="metadata921"><rdf:RDF><cc:Work
         rdf:about=""><dc:format>image/svg+xml</dc:format><dc:type
           rdf:resource="http://purl.org/dc/dcmitype/StillImage" /><dc:title /></cc:Work></rdf:RDF></metadata><g
     id="g6424"
     transform="matrix(1.8055318,0,0,1.8055318,-3.30264,-5.1052447)"><rect
       style="fill:#37c871;fill-opacity:1;fill-rule:evenodd;stroke:none;stroke-width:0.0772708"
       id="rect11260"
       width="8.7080412"
       height="40.153111"
       x="43.531029"
       y="51.237232"
       rx="0.011188114"
       ry="0.012630784" /><g
       style="fill:#37c871;fill-opacity:1;stroke:none"
       id="g11450"
       transform="matrix(0.04929732,0,0,0.04929732,290.1839,40.888831)"><path
         id="path11452"
         d="m -5215.2988,178.0918 c -72.2569,-0.16596 -135.9929,18.9756 -164.0918,77.00195 -32.898,67.93677 39.6175,128.43268 119.4121,87.22852 114.2435,-58.99277 292.4721,-60.82904 345.6758,-62.80274 53.2037,1.9737 231.4322,3.80997 345.6757,62.80274 79.7946,41.20416 152.3102,-19.29175 119.4122,-87.22852 -73.0048,-150.76032 -386.5065,-39.05614 -465.0879,-8.19727 -48.3362,-18.98159 -185.5199,-68.53946 -300.9961,-68.80468 z"
         style="fill:#37c871;fill-opacity:1;fill-rule:evenodd;stroke:none"
         inkscape:connector-curvature="0" /><path
         inkscape:connector-curvature="0"
         id="path11454"
         d="m -4913.2641,-554.85054 c -3.5904,-0.0318 -7.2172,0.0936 -10.8756,0.3777 -128.8438,10.00579 -192.2629,190.14848 -96.5224,364.26946 88.3074,160.60268 85.7244,386.65633 81.2455,473.49005 h 83.5037 c -7.5931,-57.92545 -27.8706,-272.973206 53.7371,-485.58621 76.9231,-200.40867 0.2156,-351.56505 -111.0883,-352.551 z"
         style="fill:#37c871;fill-opacity:1;fill-rule:evenodd;stroke:none" /><g
         style="fill:#37c871;fill-opacity:1;stroke:none"
         transform="matrix(1.0004653,0,0,0.95580638,-3755.0803,-78.46909)"
         id="g11456"><path
           style="fill:#37c871;fill-opacity:1;fill-rule:evenodd;stroke:none"
           d="m -1151.1786,378.65407 -14.0372,-800.25306"
           id="path11458"
           inkscape:connector-curvature="0" /><path
           inkscape:connector-curvature="0"
           id="path11460"
           d="m -1138.0773,378.65407 -14.0372,-800.25306"
           style="fill:#37c871;fill-opacity:1;fill-rule:evenodd;stroke:none" /></g><path
         id="path11462"
         d="m -5275.7129,-429.68164 c -7.5374,0.0536 -15.2,0.58874 -22.9902,1.63086 -112.0548,14.98978 -127.7696,155.55286 -10.3946,221.23633 199.6784,111.740717 373.717,403.91465 378.9649,398.76367 l 15.8301,-8.63477 15.83,8.63477 c 5.2479,5.15098 179.2865,-287.022953 378.9649,-398.76367 117.375,-65.68347 101.6603,-206.24655 -10.3945,-221.23633 -225.3643,-30.14741 -344.4584,364.561353 -384.4004,530.86914 -38.5613,-160.558979 -150.8965,-533.99787 -361.4102,-532.5 z"
         style="fill:#37c871;fill-opacity:1;fill-rule:evenodd;stroke:none"
         inkscape:connector-curvature="0" /><path
         id="path11464"
         d="m -5356.7852,-193.37305 c -27.2947,0.001 -53.9677,6.56571 -79.373,21.4336 -85.2672,49.90065 -50.4953,168.510114 66.2871,181.8437469 198.6701,22.6831801 437.5666,199.4643031 440.0586,193.5410131 l 15.5098,-19.3789 15.5097,19.3789 c 2.492,5.92329 241.3885,-170.857833 440.0586,-193.5410131 116.7824,-13.3336329 151.5563,-131.9430969 66.2891,-181.8437469 -202.4329,-118.46915 -485.2667,290.19141 -521.8574,344.86328 -31.9986,-47.81055 -252.2895,-366.30607 -442.4825,-366.29688 z"
         style="fill:#37c871;fill-opacity:1;fill-rule:evenodd;stroke:none"
         inkscape:connector-curvature="0" /><path
         id="path11466"
         d="m -5338.832,1.5371094 c -46.5633,0.202778 -88.5882,14.1603306 -121.1289,48.5371096 -65.5294,69.226631 -1.324,169.724941 110.457,150.576171 137.4046,-23.53823 315.9129,21.77699 404.6836,46.41602 l 5.8515,14.17382 c 0.1283,1.1116 9.102,-1.24494 24.6661,-5.60937 15.5641,4.36443 24.5377,6.72097 24.666,5.60937 l 5.8515,-14.17382 c 88.7706,-24.63901 267.2789,-69.95427 404.6836,-46.41602 111.781,19.14877 175.9865,-81.34954 110.4571,-150.576171 -136.828,-144.548061 -441.1675,71.810331 -545.6582,153.818361 C -4993.9432,141.3879 -5189.6052,0.88724281 -5338.832,1.5371094 Z"
         style="fill:#37c871;fill-opacity:1;fill-rule:evenodd;stroke:none"
         inkscape:connector-curvature="0" /><path
         inkscape:connector-curvature="0"
         id="path11468"
         d="m -4916.1499,164.79034 c 0,0 209.5092,-509.07505 397.1301,-519.68341"
         style="fill:#37c871;fill-opacity:1;fill-rule:evenodd;stroke:none" /><path
         style="fill:#37c871;fill-opacity:1;fill-rule:evenodd;stroke:none"
         d="m -4936.1627,234.06303 c 0,0 407.226,-222.748012 535.8736,-130.25036"
         id="path11470"
         inkscape:connector-curvature="0" /><path
         inkscape:connector-curvature="0"
         id="path11472"
         d="m -4903.8758,175.58804 c 0,0 340.6917,-339.65225 495.5111,-284.88306"
         style="fill:#37c871;fill-opacity:1;fill-rule:evenodd;stroke:none" /><path
         inkscape:connector-curvature="0"
         id="path11474"
         d="m -4921.6318,258.16587 c 0,0 360.6965,-70.68804 435.6699,29.91926"
         style="fill:#37c871;fill-opacity:1;fill-rule:evenodd;stroke:none" /><path
         style="fill:#37c871;fill-opacity:1;fill-rule:evenodd;stroke:none"
         d="m -4912.4554,164.79034 c 0,0 -209.5092,-509.07505 -397.1301,-519.68341"
         id="path11476"
         inkscape:connector-curvature="0" /><path
         inkscape:connector-curvature="0"
         id="path11478"
         d="m -4892.4426,234.06303 c 0,0 -407.226,-222.748012 -535.8736,-130.25036"
         style="fill:#37c871;fill-opacity:1;fill-rule:evenodd;stroke:none" /><path
         style="fill:#37c871;fill-opacity:1;fill-rule:evenodd;stroke:none"
         d="m -4924.7295,175.58804 c 0,0 -340.6917,-339.65225 -495.5111,-284.88306"
         id="path11480"
         inkscape:connector-curvature="0" /><path
         style="fill:#37c871;fill-opacity:1;fill-rule:evenodd;stroke:none"
         d="m -4906.9735,258.16587 c 0,0 -360.6965,-70.68804 -435.6699,29.91926"
         id="path11482"
         inkscape:connector-curvature="0" /><path
         style="fill:#37c871;fill-opacity:1;fill-rule:evenodd;stroke:none"
         d="m -4909.4118,170.23823 c 0,0 209.5092,-509.07505 397.1301,-519.68342"
         id="path11484"
         inkscape:connector-curvature="0" /><path
         inkscape:connector-curvature="0"
         id="path11486"
         d="m -4934.6323,241.20696 c 0,0 407.2261,-222.74801 535.8737,-130.25036"
         style="fill:#37c871;fill-opacity:1;fill-rule:evenodd;stroke:none" /><path
         style="fill:#37c871;fill-opacity:1;fill-rule:evenodd;stroke:none"
         d="m -4900.2829,182.25357 c 0,0 340.6917,-339.65224 495.5111,-284.88306"
         id="path11488"
         inkscape:connector-curvature="0" /><path
         inkscape:connector-curvature="0"
         id="path11490"
         d="m -4919.1935,170.23823 c 0,0 -209.5092,-509.07505 -397.1301,-519.68342"
         style="fill:#37c871;fill-opacity:1;fill-rule:evenodd;stroke:none" /><path
         style="fill:#37c871;fill-opacity:1;fill-rule:evenodd;stroke:none"
         d="m -4893.973,241.20696 c 0,0 -407.2261,-222.74801 -535.8737,-130.25036"
         id="path11492"
         inkscape:connector-curvature="0" /><path
         inkscape:connector-curvature="0"
         id="path11494"
         d="m -4928.3224,182.25357 c 0,0 -340.6917,-339.65224 -495.5111,-284.88306"
         style="fill:#37c871;fill-opacity:1;fill-rule:evenodd;stroke:none" /><path
         style="fill:#37c871;fill-opacity:1;fill-rule:evenodd;stroke:none"
         d="m -4922.1861,263.92465 c 0,0 360.6964,-70.68804 435.6698,29.91925"
         id="path11496"
         inkscape:connector-curvature="0" /><path
         inkscape:connector-curvature="0"
         id="path11498"
         d="m -4906.4192,263.92465 c 0,0 -360.6964,-70.68804 -435.6698,29.91925"
         style="fill:#37c871;fill-opacity:1;fill-rule:evenodd;stroke:none" /></g><path
       style="fill:#3dc5e7;fill-opacity:1;fill-rule:evenodd;stroke:none"
       d="M 30.411209,3.7366894 A 45.705829,45.705829 0 0 0 2.2161529,45.939612 45.705829,45.705829 0 0 0 43.531028,91.390342 V 82.592348 A 36.943515,36.943515 0 0 1 10.97847,45.939612 36.943515,36.943515 0 0 1 30.411169,13.447433 V 3.7366894 Z m 35.021571,0.027943 v 9.6569796 a 36.943515,36.943515 0 0 1 19.432697,32.518 36.943515,36.943515 0 0 1 -32.552553,36.635152 v 8.851008 A 45.705829,45.705829 0 0 0 93.627795,45.939612 45.705829,45.705829 0 0 0 65.43278,3.7646324 Z"
       id="path11500"
       inkscape:connector-curvature="0" /></g></svg>
