<?xml version="1.0" encoding="UTF-8" standalone="no"?>
<svg>
  <defs
     id="defs843" />
  <g
     id="layer1"
     transform="matrix(1.9595372,0,0,2.0924001,-3.8517274,-4.9639169)">
    <g
       id="g1485">
      <path
         id="rect61"
         style="fill:#008bd6;fill-opacity:1;stroke-width:0.550847"
         d="m 117.15021,6.5543624 -1.9e-4,7.7317956 7.95694,7.956948 3.866,-3.865994 z m 10.84516,18.5771516 33.56467,33.564665 c 1.83823,1.838231 1.83804,4.79793 -2e-4,6.636167 l -44.40982,44.409424 v 7.732 l 51.66181,-51.66182 c 2.10401,-2.104017 2.10402,-5.491573 1e-5,-7.595579 L 131.86137,21.26552 Z" />
      <path
         id="path291"
         style="fill:#008bd6;fill-opacity:1;stroke-width:0.550847"
         d="m 115.13982,4.5440467 -1.95824,1.9582529 c -6.75618,6.7561724 -6.7559,17.6344864 2.7e-4,24.3906484 l 3.96819,3.968467 1.29739,1.297392 2.15366,2.153662 40.9588,40.958801 c 1.83823,1.838237 1.83823,4.797989 0,6.636215 l -44.40985,44.409585 v 7.73184 l 51.66187,-51.661879 c 2.10401,-2.104017 2.10403,-5.491589 0,-7.595579 l -44.3449,-44.344908 v -2.72e-4 l -4.29378,-4.293782 -3.02319,-3.022919 -0.34301,-0.34328 -0.0334,-0.03343 2.7e-4,-2.78e-4 c -3.03191,-3.067686 -3.02103,-7.978364 0.0332,-11.032534 l 0.88833,-0.888329 5.49968,5.499686 1.91182,1.911812 3.8662,-3.866198 z" />
      <path
         id="path1083"
         style="fill:#008bd6;fill-opacity:1;stroke-width:0.550847"
         d="m 65.484563,6.5089318 c -4.408615,4.81e-5 -8.817492,1.6893119 -12.195602,5.0674062 L 48.023385,16.841919 15.046559,49.81874 6.649163,58.216414 c -2.1040169,2.104001 -2.1040169,5.491578 0,7.595579 l 8.397396,8.397401 1.958247,1.958248 3.237406,3.2374 38.068826,38.068558 4.274709,4.27498 4.293776,4.29378 1.718895,1.71889 1.680749,1.68075 5.499686,5.49969 -0.888329,0.88861 c -3.054165,3.05419 -7.964838,3.06481 -11.032534,0.0329 l -2.78e-4,5.3e-4 -0.03343,-0.0334 -3.366199,-3.36648 -2.14703,-2.14675 -2.146752,-2.14703 -2.72e-4,2.8e-4 L 13.90092,85.907515 c -0.02728,-0.02728 -0.05017,-0.05704 -0.07656,-0.08485 l -3.8697915,3.869791 42.3438125,42.343534 -2.78e-4,2.7e-4 2.153662,2.15339 3.859287,3.85929 1.406572,1.40657 c 6.756183,6.75619 17.634465,6.75619 24.390648,0 l 1.958253,-1.95826 -17.467815,-17.46753 v -2.8e-4 l -2.14703,-2.14675 -8.140628,-8.1409 -34.12524,-34.124967 c -0.02599,-0.02647 -0.04835,-0.055 -0.0738,-0.08181 l -0.0037,0.0037 L 20.87087,72.301599 79.638279,13.53419 77.680032,11.575937 C 74.301927,8.1978426 69.893323,6.5087607 65.484702,6.5088088 Z" />
      <rect
         style="fill:#008bd6;fill-opacity:1;stroke-width:0.731681"
         id="rect3477"
         width="57.689995"
         height="57.689995"
         x="85.892891"
         y="-38.176834"
         transform="rotate(45)"
         rx="7.4883485"
         ry="7.4883485" />
    </g>
  </g>
</svg>
