<?xml version="1.0" encoding="UTF-8" standalone="no"?>
<svg>
  <path fill="#ffffffeb" d="M0,124L120,113.7C240,103,480,83,720,93C960,103,1200,145,1440,144.7C1680,145,1920,103,2160,77.5C2400,52,2640,41,2880,31C3120,21,3360,10,3600,41.3C3840,72,4080,145,4320,180.8C4560,217,4800,217,5040,180.8C5280,145,5520,72,5760,62C6000,52,6240,103,6480,139.5C6720,176,6960,196,7200,217C7440,238,7680,258,7920,222.2C8160,186,8400,93,8640,62C8880,31,9120,62,9360,93C9600,124,9840,155,10080,170.5C10320,186,10560,186,10800,191.2C11040,196,11280,207,11520,186C11760,165,12000,114,12240,77.5C12480,41,12720,21,12960,31C13200,41,13440,83,13680,103.3C13920,124,14160,124,14400,139.5C14640,155,14880,186,15120,196.3C15360,207,15600,196,15840,180.8C16080,165,16320,145,16560,124C16800,103,17040,83,17160,72.3L17280,62L17280,310L17160,310C17040,310,16800,310,16560,310C16320,310,16080,310,15840,310C15600,310,15360,310,15120,310C14880,310,14640,310,14400,310C14160,310,13920,310,13680,310C13440,310,13200,310,12960,310C12720,310,12480,310,12240,310C12000,310,11760,310,11520,310C11280,310,11040,310,10800,310C10560,310,10320,310,10080,310C9840,310,9600,310,9360,310C9120,310,8880,310,8640,310C8400,310,8160,310,7920,310C7680,310,7440,310,7200,310C6960,310,6720,310,6480,310C6240,310,6000,310,5760,310C5520,310,5280,310,5040,310C4800,310,4560,310,4320,310C4080,310,3840,310,3600,310C3360,310,3120,310,2880,310C2640,310,2400,310,2160,310C1920,310,1680,310,1440,310C1200,310,960,310,720,310C480,310,240,310,120,310L0,310Z"/>
</svg>
